# xmcd
#
# Track frame offsets:
#	150
#	15046
#	29072
#	43155
#	59251
#	74745
#	88753
#	102163
#	116872
#	128015
#
# Disc length: 1917 seconds
# Revision: 0
# Processed by: cddbd v1.5.2PL0 Copyright (c) Steve Scherf et al.
# Submitted via: dBpowerAMP V12.0
#
DISCID=89077b0a
DTITLE=Waddo And Les - Highway 40 Blues
DYEAR=2014
DGENRE=Country
TTITLE0=Drive
TTITLE1=Purple Roses
TTITLE2=Highway 40 Blues
TTITLE3=One And One And One
TTITLE4=PIcture In A Frame
TTITLE5=Apache
TTITLE6=Misty
TTITLE7=Guitar Boogie
TTITLE8=As Im Leaving
TTITLE9=Rise And Fall OF Flingle Blunt
EXTD=
EXTT0=
EXTT1=
EXTT2=
EXTT3=
EXTT4=
EXTT5=
EXTT6=
EXTT7=
EXTT8=
EXTT9=
PLAYORDER=
